<mxfile host="app.diagrams.net" modified="2024-03-14T20:09:36.864Z" agent="Mozilla/5.0 (Windows NT 10.0; Win64; x64; rv:109.0) Gecko/20100101 Firefox/115.0" version="24.0.6" etag="3Dj1f3JbAIDpzzR_kFRG" type="github">
  <diagram name="Page-1" id="Ps2GRWtDDjwOuXcqDmM-">
    <mxGraphModel>
      <root>
        <mxCell id="0" />
        <mxCell id="1" parent="0" />
      </root>
    </mxGraphModel>
  </diagram>
</mxfile>
